<?xml version="1.0" encoding="UTF-8"?>
<svg xmlns="http://www.w3.org/2000/svg" width="360" height="80" viewBox="0 0 360 80" role="img" aria-label="BlackHorse">
  <defs>
    <linearGradient id="logoGradient" x1="0" y1="0" x2="1" y2="1">
      <stop offset="0%" stop-color="#FAAF3A" />
      <stop offset="100%" stop-color="#D9822B" />
    </linearGradient>
  </defs>
  <rect width="360" height="80" rx="18" fill="#101820" />
  <path d="M44 24 C30 24 30 56 44 56 C58 56 58 24 44 24 Z M44 26 C52 26 56 34 56 38 C56 42 54 48 46 50 C48 46 50 40 50 36 C50 32 48 28 44 26 Z" fill="url(#logoGradient)" />
  <path d="M45 20 C36 20 34 28 34 34 C34 42 40 48 48 48 C56 48 62 42 62 34 C62 28 58 20 49 20 Z" fill="#FFFFFF" opacity="0.1" />
  <text x="100" y="42" font-family="Segoe UI, Roboto, Arial, sans-serif" font-size="28" fill="#FFFFFF" font-weight="700">BlackHorse</text>
  <text x="100" y="62" font-family="Segoe UI, Roboto, Arial, sans-serif" font-size="12" fill="#B0B0B0">Digital goods storefront</text>
</svg>